<svg width="104" height="32" viewBox="0 0 104 32" fill="none" xmlns="http://www.w3.org/2000/svg">
<path d="M14.335 14.5681H9.80634L12.0196 8.2689L14.335 14.5681ZM9.02319 0.845999L0.340439 24H6.50349L8.10384 19.4373H16.1056L17.774 24.3405L23.869 23.7276L15.2203 0.845999H9.02319ZM37.0783 7.5198V18.6201C36.7605 18.7563 36.3859 18.9038 35.9546 19.0627C35.546 19.1989 35.1374 19.3238 34.7288 19.4373C34.3429 19.5281 34.0138 19.5735 33.7414 19.5735C33.0604 19.5735 32.595 19.3692 32.3453 18.9606C32.0956 18.552 31.9708 18.098 31.9708 17.5986V7.5198H25.7737V18.1774C25.7737 19.4032 25.978 20.5042 26.3866 21.4803C26.8179 22.4337 27.4762 23.1941 28.3615 23.7616C29.2468 24.3064 30.3818 24.5788 31.7665 24.5788C32.6518 24.5788 33.503 24.454 34.3202 24.2043C35.1601 23.9773 35.9319 23.6935 36.6356 23.353C37.3393 23.0125 37.9636 22.672 38.5084 22.3315L40.279 24.034H43.2754V7.5198H37.0783ZM52.3106 24L54.4557 20.4588L56.669 24H63.6152L57.9969 16.1344L63.6152 7.48575H56.7711L54.2514 11.4696L51.3572 6.975L45.3644 8.4051L50.7102 15.7939L45.3303 24H52.3106ZM72.0473 31.1164V10.6183L68.9488 7.5198H65.8502V31.4569L72.0473 31.1164ZM70.0384 13.9212C70.6967 13.2402 71.3096 12.6954 71.8771 12.2868C72.4446 11.8782 73.0007 11.6739 73.5455 11.6739C74.2038 11.6739 74.7486 11.8214 75.1799 12.1165C75.6339 12.4116 75.9744 12.8543 76.2014 13.4445C76.4511 14.012 76.576 14.7157 76.576 15.5556C76.576 16.3955 76.4511 17.1219 76.2014 17.7348C75.9517 18.3477 75.6226 18.813 75.214 19.1308C74.8054 19.4486 74.34 19.6075 73.8179 19.6075C73.2277 19.6075 72.6148 19.4486 71.9792 19.1308C71.3436 18.7903 70.6967 18.3136 70.0384 17.7007L68.3018 21.3441C68.9374 22.0705 69.573 22.6607 70.2086 23.1147C70.8669 23.546 71.5252 23.8638 72.1835 24.0681C72.8645 24.2724 73.5455 24.3745 74.2265 24.3745C75.9744 24.3745 77.4953 24.0454 78.7892 23.3871C80.1058 22.7288 81.1273 21.7413 81.8537 20.4247C82.6028 19.1081 82.9774 17.4737 82.9774 15.5215C82.9774 13.5466 82.6028 11.9236 81.8537 10.6524C81.1273 9.3812 80.1285 8.43915 78.8573 7.82625C77.5861 7.21335 76.1333 6.9069 74.4989 6.9069C73.659 6.9069 72.8418 7.05445 72.0473 7.34955C71.2528 7.64465 70.5264 8.03055 69.8681 8.50725C69.2325 8.96125 68.7104 9.43795 68.3018 9.93735L70.0384 13.9212ZM93.5704 24.3745C91.7998 24.3745 90.2108 24.0567 88.8034 23.4211C87.4187 22.7855 86.3291 21.8208 85.5346 20.5269C84.7401 19.233 84.3428 17.6099 84.3428 15.6577C84.3428 13.7963 84.7628 12.2187 85.6027 10.9248C86.4426 9.6309 87.5662 8.64345 88.9736 7.96245C90.4037 7.25875 91.9814 6.9069 93.7066 6.9069C95.5226 6.9069 97.1343 7.2474 98.5417 7.9284C99.9491 8.5867 101.05 9.57415 101.845 10.8907C102.662 12.2073 103.07 13.8531 103.07 15.828C103.07 17.6667 102.639 19.2216 101.776 20.4928C100.937 21.764 99.8015 22.7288 98.3714 23.3871C96.9413 24.0454 95.341 24.3745 93.5704 24.3745ZM93.6385 19.3351C94.2968 19.3351 94.8416 19.2103 95.2729 18.9606C95.7269 18.6882 96.0674 18.2909 96.2944 17.7688C96.5441 17.2467 96.6689 16.5998 96.6689 15.828C96.6689 15.0789 96.5554 14.4206 96.3284 13.8531C96.1014 13.2629 95.7723 12.7975 95.341 12.457C94.9324 12.1165 94.4103 11.9463 93.7747 11.9463C93.1391 11.9463 92.5943 12.0938 92.1403 12.3889C91.6863 12.684 91.3344 13.1153 91.0847 13.6828C90.8577 14.2276 90.7442 14.8859 90.7442 15.6577C90.7442 16.3841 90.8577 17.0311 91.0847 17.5986C91.3117 18.1434 91.6409 18.5747 92.0722 18.8925C92.5035 19.1876 93.0256 19.3351 93.6385 19.3351Z" fill="white"/>
</svg>
